<svg data-v-423bf9ae="" xmlns="http://www.w3.org/2000/svg" viewBox="0 0 623 90" class="iconLeftSlogan"><!----><!----><!----><g data-v-423bf9ae="" id="76aaec6f-5ab5-42ab-8974-681e7a5d9a11" fill="black" transform="matrix(6.553572010786204,0,0,6.553572010786204,105.98645036057411,-6.256612288333095)"><path d="M6.73 1.92L6.73 6.59C5.59 4.68 4.23 2.95 2.37 1.19C2.11 0.94 0.81 0.90 0.81 1.46L0.81 9.63C0.81 10.19 2.45 10.19 2.45 9.63L2.45 3.50C4.17 5.32 5.31 6.86 6.75 9.80C6.92 10.14 8.39 10.19 8.39 9.63L8.39 1.22C8.39 0.56 6.73 1.26 6.73 1.92ZM16.46 8.48C16.35 8.53 16.25 8.54 16.16 8.54C15.89 8.54 15.75 8.33 15.75 7.76L15.75 6.03C15.75 4.05 14.66 3.37 12.95 3.37C11.54 3.37 10.71 3.65 10.12 4.14C9.66 4.51 9.76 5.56 10.23 5.26C10.81 4.93 11.58 4.69 12.45 4.69C13.62 4.69 14.11 5.08 14.11 6.24L14.11 6.31C13.68 6.09 13.03 5.95 12.14 5.95C10.64 5.95 9.67 6.76 9.67 8.01C9.67 9.25 10.58 10.05 11.98 10.05C13.06 10.05 13.82 9.66 14.28 9.24C14.50 9.81 14.92 10.02 15.41 10.02C15.75 10.02 16.11 9.93 16.46 9.79C17.07 9.53 17.07 8.26 16.46 8.48ZM12.43 8.75C11.62 8.75 11.33 8.37 11.33 7.97C11.33 7.55 11.65 7.15 12.52 7.15C13.33 7.15 13.86 7.29 14.11 7.48L14.11 8.04C13.86 8.34 13.30 8.75 12.43 8.75ZM21.81 8.26C20.50 9.02 19.71 8.76 19.71 7.45L19.71 5.12L21.91 5.12C22.47 5.12 22.47 3.68 21.91 3.68L19.71 3.68L19.71 2.03C19.71 1.50 18.41 1.50 18.34 1.90L18.06 3.68L17.21 3.68C16.65 3.68 16.65 5.12 17.21 5.12L18.06 5.12L18.06 7.39C18.06 9.95 20.02 10.58 21.81 9.59C22.29 9.30 22.27 8.01 21.81 8.26ZM30.41 8.48C30.28 8.54 30.18 8.57 30.09 8.57C29.81 8.57 29.67 8.37 29.67 7.97L29.67 3.78C29.67 3.22 28.03 3.22 28.03 3.78L28.03 7.64C27.43 8.34 26.82 8.61 26.26 8.61C25.42 8.61 24.96 8.15 24.96 7.13L24.96 3.54C24.96 2.88 23.34 3.58 23.34 4.24L23.34 7.70C23.34 9.16 24.19 10.04 25.59 10.04C26.54 10.04 27.43 9.70 28.11 9.00C28.29 9.76 28.76 10.04 29.32 10.04C29.67 10.04 30.03 9.94 30.41 9.80C31.00 9.53 30.97 8.22 30.41 8.48ZM35.69 3.43C34.59 3.46 33.78 3.88 33.25 4.54L33.04 3.68C32.94 3.29 31.61 3.28 31.61 3.81L31.61 9.63C31.61 10.19 33.26 10.19 33.26 9.63L33.26 5.94C33.91 5.25 34.57 5.04 35.38 5.00C35.87 4.98 36.20 3.42 35.69 3.43ZM42.74 6.23C42.74 4.38 41.72 3.37 39.68 3.37C37.55 3.37 36.44 4.66 36.44 6.66C36.44 9.04 38.16 10.04 39.89 10.04C40.67 10.04 41.41 9.83 42.06 9.42C42.45 9.17 42.45 8.02 41.93 8.25C41.22 8.57 40.60 8.75 40.01 8.75C39.03 8.75 38.12 8.27 38.09 7.28C38.47 7.34 38.89 7.36 39.27 7.36C41.03 7.36 42.74 6.89 42.74 6.23ZM38.12 6.10C38.14 5.03 38.85 4.62 39.75 4.62C40.73 4.62 41.24 5.08 41.24 5.77C41.24 5.98 40.33 6.16 39.17 6.16C38.84 6.16 38.49 6.15 38.12 6.10ZM48.99 1.13L42 1.13C41.34 1.13 42.04 2.58 42.70 2.58L44.67 2.58L44.67 9.63C44.67 10.19 46.44 10.19 46.44 9.63L46.44 2.58L48.99 2.58C49.53 2.58 49.53 1.13 48.99 1.13ZM56.29 8.48C56.17 8.54 56.07 8.57 55.97 8.57C55.69 8.57 55.55 8.37 55.55 7.97L55.55 3.78C55.55 3.22 53.91 3.22 53.91 3.78L53.91 7.64C53.31 8.34 52.71 8.61 52.15 8.61C51.31 8.61 50.85 8.15 50.85 7.13L50.85 3.54C50.85 2.88 49.22 3.58 49.22 4.24L49.22 7.70C49.22 9.16 50.08 10.04 51.48 10.04C52.43 10.04 53.31 9.70 54.00 9.00C54.18 9.76 54.64 10.04 55.20 10.04C55.55 10.04 55.92 9.94 56.29 9.80C56.88 9.53 56.85 8.22 56.29 8.48ZM64.60 8.57C64.47 8.62 64.37 8.64 64.27 8.64C63.99 8.64 63.85 8.44 63.85 8.04L63.85 7.52L63.85 5.73C63.85 4.26 63 3.37 61.60 3.37C60.66 3.37 59.79 3.71 59.11 4.38L58.88 3.67C58.74 3.29 57.51 3.25 57.51 3.78L57.51 9.63C57.51 10.19 59.15 10.19 59.15 9.63L59.15 5.77C59.75 5.08 60.35 4.82 60.91 4.82C61.75 4.82 62.22 5.26 62.22 6.30L62.22 7.20L62.22 8.29C62.22 9.65 62.78 10.11 63.50 10.11C63.85 10.11 64.22 10.01 64.60 9.87C65.18 9.62 65.16 8.29 64.60 8.57ZM72.02 6.23C72.02 4.38 70.99 3.37 68.95 3.37C66.82 3.37 65.72 4.66 65.72 6.66C65.72 9.04 67.44 10.04 69.16 10.04C69.94 10.04 70.69 9.83 71.33 9.42C71.72 9.17 71.72 8.02 71.20 8.25C70.49 8.57 69.87 8.75 69.29 8.75C68.31 8.75 67.40 8.27 67.37 7.28C67.75 7.34 68.17 7.36 68.54 7.36C70.31 7.36 72.02 6.89 72.02 6.23ZM67.40 6.10C67.41 5.03 68.12 4.62 69.02 4.62C70 4.62 70.52 5.08 70.52 5.77C70.52 5.98 69.61 6.16 68.45 6.16C68.11 6.16 67.76 6.15 67.40 6.10ZM74.59 5.29C74.59 4.84 75.26 4.58 76.13 4.58C76.85 4.58 77.69 4.76 78.43 5.15C78.85 5.39 78.81 4.07 78.40 3.88C77.71 3.54 76.86 3.37 76.02 3.37C74.44 3.37 72.95 3.98 72.95 5.33C72.95 6.80 74.49 7 75.71 7.20C76.52 7.32 77.20 7.43 77.20 7.92C77.20 8.46 76.48 8.75 75.57 8.75C74.84 8.75 74.00 8.57 73.28 8.18C72.83 7.97 72.90 9.35 73.29 9.55C73.98 9.87 74.87 10.05 75.74 10.05C77.32 10.05 78.83 9.42 78.83 7.95C78.83 6.34 77.28 6.16 76.05 5.98C75.25 5.87 74.59 5.75 74.59 5.29Z"></path></g><!----><g data-v-423bf9ae="" id="ffb216e3-d15a-4c7f-9717-630f60e00d96" transform="matrix(2.852072528086791,0,0,2.852072528086791,0.3618419448213217,-0.41116010653409063)" stroke="none" fill="black"><path d="M16 23.787L8.102 16 16 8.213 23.898 16 16 23.787zM9.525 16L16 22.383 22.475 16 16 9.617 9.525 16z"></path><path d="M15.915 31.778L-.005 16.084 16.085.222l15.92 15.694-16.09 15.862zM1.419 16.084l14.496 14.29 14.666-14.458-14.496-14.29L1.419 16.084z"></path><path d="M15.5.924h1v30.152h-1z"></path></g><!----><g data-v-423bf9ae="" id="953e35c0-49f5-4052-bf93-ea582b0e6275" fill="black" transform="matrix(2.1316784320507027,0,0,2.1316784320507027,111.20957101735604,55.52347490764618)"><path d="M5.29 2.21L3.98 2.21L0.04 11.48L1.20 11.48L2.34 8.79L6.93 8.79L8.06 11.48L9.23 11.48ZM2.74 7.83L4.63 3.30L6.52 7.83ZM23.79 2.21L23.79 7.52C23.79 9.67 22.36 10.57 20.89 10.57C19.42 10.57 18.00 9.67 18.00 7.52L18.00 2.21L16.95 2.21L16.95 7.49C16.95 9.95 18.58 11.59 20.89 11.59C23.21 11.59 24.84 9.94 24.84 7.49L24.84 2.21ZM37.90 2.21L33.99 2.21L33.99 11.48L37.90 11.48C40.11 11.48 42.15 9.74 42.15 6.85C42.15 3.95 40.11 2.21 37.90 2.21ZM37.86 10.49L35.04 10.49L35.04 3.21L37.86 3.21C39.83 3.21 41.10 4.86 41.10 6.85C41.10 8.83 39.83 10.49 37.86 10.49ZM51.90 2.21L50.85 2.21L50.85 11.48L51.90 11.48ZM65.28 2.10C62.47 2.10 60.58 4.21 60.58 6.85C60.58 9.48 62.47 11.59 65.28 11.59C68.10 11.59 69.99 9.48 69.99 6.85C69.99 4.21 68.10 2.10 65.28 2.10ZM65.28 10.57C63.03 10.57 61.63 8.93 61.63 6.85C61.63 4.76 63.03 3.12 65.28 3.12C67.54 3.12 68.94 4.76 68.94 6.85C68.94 8.93 67.54 10.57 65.28 10.57ZM95.59 2.21L95.59 10.01L89.87 2.21L88.65 2.21L88.65 11.48L89.70 11.48L89.70 3.65L95.42 11.48L96.64 11.48L96.64 2.21ZM110.07 2.21L108.75 2.21L104.82 11.48L105.98 11.48L107.11 8.79L111.71 8.79L112.84 11.48L114.00 11.48ZM107.52 7.83L109.41 3.30L111.30 7.83ZM127.93 2.21L120.41 2.21L120.41 3.22L123.65 3.22L123.65 11.48L124.70 11.48L124.70 3.22L127.93 3.22ZM142.98 2.21L142.98 7.52C142.98 9.67 141.55 10.57 140.08 10.57C138.61 10.57 137.20 9.67 137.20 7.52L137.20 2.21L136.15 2.21L136.15 7.49C136.15 9.95 137.77 11.59 140.08 11.59C142.41 11.59 144.03 9.94 144.03 7.49L144.03 2.21ZM154.24 7.92L157.46 7.92L159.70 11.48L160.94 11.48L158.51 7.74C159.54 7.50 160.75 6.90 160.75 5.11C160.75 3.35 159.53 2.21 157.63 2.21L153.19 2.21L153.19 11.48L154.24 11.48ZM154.24 3.21L157.50 3.21C158.82 3.21 159.70 3.93 159.70 5.11C159.70 6.55 158.44 6.93 157.44 6.93L154.24 6.93ZM173.71 2.21L172.40 2.21L168.46 11.48L169.62 11.48L170.76 8.79L175.35 8.79L176.48 11.48L177.65 11.48ZM171.16 7.83L173.05 3.30L174.94 7.83ZM185.82 2.21L185.82 11.48L191.93 11.48L191.93 10.47L186.87 10.47L186.87 2.21Z"></path></g></svg>